<?xml version="1.0" encoding="UTF-8"?>
<svg xmlns="http://www.w3.org/2000/svg" xmlns:xlink="http://www.w3.org/1999/xlink" width="3500" height="3500" viewBox="0 0 3500 3500">
<defs>
<clipPath id="clip-0">
<path clip-rule="nonzero" d="M 0.375 0 C 0.277344 0 0.179688 0.0390625 0.109375 0.109375 C 0.0390625 0.179688 0 0.28125 0 0.371094 L 0 3499.125 C 0 3499.332031 0.167969 3499.5 0.375 3499.5 L 3499.128906 3499.5 C 3499.230469 3499.5 3499.320312 3499.460938 3499.390625 3499.390625 C 3499.460938 3499.320312 3499.5 3499.226562 3499.5 3499.125 L 3499.5 0.371094 C 3499.5 0.171875 3499.328125 0 3499.128906 0 Z M 0.375 0 "/>
</clipPath>
<clipPath id="clip-1">
<path clip-rule="nonzero" d="M 0.375 0 C 0.277344 0 0.179688 0.0390625 0.109375 0.109375 C 0.0390625 0.179688 0 0.28125 0 0.371094 L 0 3499.125 C 0 3499.332031 0.167969 3499.5 0.375 3499.5 L 3499.128906 3499.5 C 3499.230469 3499.5 3499.320312 3499.460938 3499.390625 3499.390625 C 3499.460938 3499.320312 3499.5 3499.226562 3499.5 3499.125 L 3499.5 0.371094 C 3499.5 0.171875 3499.328125 0 3499.128906 0 Z M 0.375 0 "/>
</clipPath>
<radialGradient id="radial-pattern-0" gradientUnits="userSpaceOnUse" cx="268.12125" cy="527.4165" fx="268.12125" fy="527.4165" r="1570.8675" gradientTransform="matrix(1, 0, 0, 1, 1481.64, 1222.34)">
<stop offset="0" stop-color="rgb(50.880432%, 90.802002%, 99.411011%)" stop-opacity="1"/>
<stop offset="0.00390625" stop-color="rgb(50.680542%, 90.446472%, 99.021912%)" stop-opacity="1"/>
<stop offset="0.0078125" stop-color="rgb(50.480652%, 90.090942%, 98.632812%)" stop-opacity="1"/>
<stop offset="0.0117188" stop-color="rgb(50.282288%, 89.735413%, 98.243713%)" stop-opacity="1"/>
<stop offset="0.015625" stop-color="rgb(50.082397%, 89.379883%, 97.854614%)" stop-opacity="1"/>
<stop offset="0.0195312" stop-color="rgb(49.884033%, 89.024353%, 97.465515%)" stop-opacity="1"/>
<stop offset="0.0234375" stop-color="rgb(49.684143%, 88.668823%, 97.076416%)" stop-opacity="1"/>
<stop offset="0.0273438" stop-color="rgb(49.485779%, 88.313293%, 96.688843%)" stop-opacity="1"/>
<stop offset="0.03125" stop-color="rgb(49.285889%, 87.957764%, 96.299744%)" stop-opacity="1"/>
<stop offset="0.0351562" stop-color="rgb(49.087524%, 87.602234%, 95.910645%)" stop-opacity="1"/>
<stop offset="0.0390625" stop-color="rgb(48.887634%, 87.246704%, 95.521545%)" stop-opacity="1"/>
<stop offset="0.0429688" stop-color="rgb(48.68927%, 86.891174%, 95.132446%)" stop-opacity="1"/>
<stop offset="0.046875" stop-color="rgb(48.48938%, 86.53717%, 94.743347%)" stop-opacity="1"/>
<stop offset="0.0507812" stop-color="rgb(48.291016%, 86.181641%, 94.354248%)" stop-opacity="1"/>
<stop offset="0.0546875" stop-color="rgb(48.091125%, 85.826111%, 93.965149%)" stop-opacity="1"/>
<stop offset="0.0585938" stop-color="rgb(47.892761%, 85.470581%, 93.57605%)" stop-opacity="1"/>
<stop offset="0.0625" stop-color="rgb(47.692871%, 85.115051%, 93.186951%)" stop-opacity="1"/>
<stop offset="0.0664062" stop-color="rgb(47.494507%, 84.759521%, 92.797852%)" stop-opacity="1"/>
<stop offset="0.0703125" stop-color="rgb(47.294617%, 84.403992%, 92.408752%)" stop-opacity="1"/>
<stop offset="0.0742188" stop-color="rgb(47.096252%, 84.048462%, 92.019653%)" stop-opacity="1"/>
<stop offset="0.078125" stop-color="rgb(46.896362%, 83.692932%, 91.630554%)" stop-opacity="1"/>
<stop offset="0.0820312" stop-color="rgb(46.697998%, 83.337402%, 91.241455%)" stop-opacity="1"/>
<stop offset="0.0859375" stop-color="rgb(46.498108%, 82.981873%, 90.852356%)" stop-opacity="1"/>
<stop offset="0.0898438" stop-color="rgb(46.299744%, 82.627869%, 90.463257%)" stop-opacity="1"/>
<stop offset="0.09375" stop-color="rgb(46.099854%, 82.272339%, 90.074158%)" stop-opacity="1"/>
<stop offset="0.0976562" stop-color="rgb(45.901489%, 81.916809%, 89.685059%)" stop-opacity="1"/>
<stop offset="0.101562" stop-color="rgb(45.701599%, 81.561279%, 89.295959%)" stop-opacity="1"/>
<stop offset="0.105469" stop-color="rgb(45.503235%, 81.20575%, 88.90686%)" stop-opacity="1"/>
<stop offset="0.109375" stop-color="rgb(45.303345%, 80.85022%, 88.517761%)" stop-opacity="1"/>
<stop offset="0.113281" stop-color="rgb(45.10498%, 80.49469%, 88.128662%)" stop-opacity="1"/>
<stop offset="0.117188" stop-color="rgb(44.90509%, 80.13916%, 87.739563%)" stop-opacity="1"/>
<stop offset="0.121094" stop-color="rgb(44.706726%, 79.78363%, 87.350464%)" stop-opacity="1"/>
<stop offset="0.125" stop-color="rgb(44.506836%, 79.428101%, 86.961365%)" stop-opacity="1"/>
<stop offset="0.128906" stop-color="rgb(44.308472%, 79.072571%, 86.572266%)" stop-opacity="1"/>
<stop offset="0.132812" stop-color="rgb(44.108582%, 78.718567%, 86.183167%)" stop-opacity="1"/>
<stop offset="0.136719" stop-color="rgb(43.910217%, 78.363037%, 85.794067%)" stop-opacity="1"/>
<stop offset="0.140625" stop-color="rgb(43.710327%, 78.007507%, 85.404968%)" stop-opacity="1"/>
<stop offset="0.144531" stop-color="rgb(43.511963%, 77.651978%, 85.015869%)" stop-opacity="1"/>
<stop offset="0.148438" stop-color="rgb(43.312073%, 77.296448%, 84.62677%)" stop-opacity="1"/>
<stop offset="0.152344" stop-color="rgb(43.113708%, 76.940918%, 84.237671%)" stop-opacity="1"/>
<stop offset="0.15625" stop-color="rgb(42.913818%, 76.585388%, 83.848572%)" stop-opacity="1"/>
<stop offset="0.160156" stop-color="rgb(42.715454%, 76.229858%, 83.459473%)" stop-opacity="1"/>
<stop offset="0.164062" stop-color="rgb(42.515564%, 75.874329%, 83.070374%)" stop-opacity="1"/>
<stop offset="0.167969" stop-color="rgb(42.3172%, 75.518799%, 82.681274%)" stop-opacity="1"/>
<stop offset="0.171875" stop-color="rgb(42.11731%, 75.163269%, 82.292175%)" stop-opacity="1"/>
<stop offset="0.175781" stop-color="rgb(41.918945%, 74.809265%, 81.903076%)" stop-opacity="1"/>
<stop offset="0.179688" stop-color="rgb(41.719055%, 74.453735%, 81.513977%)" stop-opacity="1"/>
<stop offset="0.183594" stop-color="rgb(41.520691%, 74.098206%, 81.124878%)" stop-opacity="1"/>
<stop offset="0.1875" stop-color="rgb(41.320801%, 73.742676%, 80.735779%)" stop-opacity="1"/>
<stop offset="0.191406" stop-color="rgb(41.122437%, 73.387146%, 80.34668%)" stop-opacity="1"/>
<stop offset="0.195312" stop-color="rgb(40.922546%, 73.031616%, 79.957581%)" stop-opacity="1"/>
<stop offset="0.199219" stop-color="rgb(40.724182%, 72.676086%, 79.568481%)" stop-opacity="1"/>
<stop offset="0.203125" stop-color="rgb(40.524292%, 72.320557%, 79.179382%)" stop-opacity="1"/>
<stop offset="0.207031" stop-color="rgb(40.324402%, 71.965027%, 78.790283%)" stop-opacity="1"/>
<stop offset="0.210938" stop-color="rgb(40.126038%, 71.609497%, 78.401184%)" stop-opacity="1"/>
<stop offset="0.214844" stop-color="rgb(39.926147%, 71.253967%, 78.012085%)" stop-opacity="1"/>
<stop offset="0.21875" stop-color="rgb(39.727783%, 70.899963%, 77.622986%)" stop-opacity="1"/>
<stop offset="0.222656" stop-color="rgb(39.527893%, 70.544434%, 77.233887%)" stop-opacity="1"/>
<stop offset="0.226562" stop-color="rgb(39.329529%, 70.188904%, 76.844788%)" stop-opacity="1"/>
<stop offset="0.230469" stop-color="rgb(39.129639%, 69.833374%, 76.455688%)" stop-opacity="1"/>
<stop offset="0.234375" stop-color="rgb(38.931274%, 69.477844%, 76.066589%)" stop-opacity="1"/>
<stop offset="0.238281" stop-color="rgb(38.731384%, 69.122314%, 75.67749%)" stop-opacity="1"/>
<stop offset="0.242188" stop-color="rgb(38.53302%, 68.766785%, 75.288391%)" stop-opacity="1"/>
<stop offset="0.246094" stop-color="rgb(38.33313%, 68.411255%, 74.899292%)" stop-opacity="1"/>
<stop offset="0.25" stop-color="rgb(38.134766%, 68.055725%, 74.510193%)" stop-opacity="1"/>
<stop offset="0.253906" stop-color="rgb(37.934875%, 67.700195%, 74.121094%)" stop-opacity="1"/>
<stop offset="0.257812" stop-color="rgb(37.736511%, 67.344666%, 73.731995%)" stop-opacity="1"/>
<stop offset="0.261719" stop-color="rgb(37.536621%, 66.990662%, 73.342896%)" stop-opacity="1"/>
<stop offset="0.265625" stop-color="rgb(37.338257%, 66.635132%, 72.953796%)" stop-opacity="1"/>
<stop offset="0.269531" stop-color="rgb(37.138367%, 66.279602%, 72.564697%)" stop-opacity="1"/>
<stop offset="0.273438" stop-color="rgb(36.940002%, 65.924072%, 72.175598%)" stop-opacity="1"/>
<stop offset="0.277344" stop-color="rgb(36.740112%, 65.568542%, 71.786499%)" stop-opacity="1"/>
<stop offset="0.28125" stop-color="rgb(36.541748%, 65.213013%, 71.3974%)" stop-opacity="1"/>
<stop offset="0.285156" stop-color="rgb(36.341858%, 64.857483%, 71.008301%)" stop-opacity="1"/>
<stop offset="0.289062" stop-color="rgb(36.143494%, 64.501953%, 70.619202%)" stop-opacity="1"/>
<stop offset="0.292969" stop-color="rgb(35.943604%, 64.146423%, 70.230103%)" stop-opacity="1"/>
<stop offset="0.296875" stop-color="rgb(35.745239%, 63.790894%, 69.841003%)" stop-opacity="1"/>
<stop offset="0.300781" stop-color="rgb(35.545349%, 63.435364%, 69.451904%)" stop-opacity="1"/>
<stop offset="0.304688" stop-color="rgb(35.346985%, 63.08136%, 69.062805%)" stop-opacity="1"/>
<stop offset="0.308594" stop-color="rgb(35.147095%, 62.72583%, 68.673706%)" stop-opacity="1"/>
<stop offset="0.3125" stop-color="rgb(34.94873%, 62.3703%, 68.284607%)" stop-opacity="1"/>
<stop offset="0.316406" stop-color="rgb(34.74884%, 62.014771%, 67.895508%)" stop-opacity="1"/>
<stop offset="0.320312" stop-color="rgb(34.550476%, 61.659241%, 67.506409%)" stop-opacity="1"/>
<stop offset="0.324219" stop-color="rgb(34.350586%, 61.303711%, 67.11731%)" stop-opacity="1"/>
<stop offset="0.328125" stop-color="rgb(34.152222%, 60.948181%, 66.72821%)" stop-opacity="1"/>
<stop offset="0.332031" stop-color="rgb(33.952332%, 60.592651%, 66.339111%)" stop-opacity="1"/>
<stop offset="0.335938" stop-color="rgb(33.753967%, 60.237122%, 65.950012%)" stop-opacity="1"/>
<stop offset="0.339844" stop-color="rgb(33.554077%, 59.881592%, 65.560913%)" stop-opacity="1"/>
<stop offset="0.34375" stop-color="rgb(33.355713%, 59.526062%, 65.171814%)" stop-opacity="1"/>
<stop offset="0.347656" stop-color="rgb(33.155823%, 59.172058%, 64.782715%)" stop-opacity="1"/>
<stop offset="0.351562" stop-color="rgb(32.957458%, 58.816528%, 64.393616%)" stop-opacity="1"/>
<stop offset="0.355469" stop-color="rgb(32.757568%, 58.460999%, 64.004517%)" stop-opacity="1"/>
<stop offset="0.359375" stop-color="rgb(32.559204%, 58.105469%, 63.615417%)" stop-opacity="1"/>
<stop offset="0.363281" stop-color="rgb(32.359314%, 57.749939%, 63.226318%)" stop-opacity="1"/>
<stop offset="0.367188" stop-color="rgb(32.16095%, 57.394409%, 62.837219%)" stop-opacity="1"/>
<stop offset="0.371094" stop-color="rgb(31.96106%, 57.038879%, 62.44812%)" stop-opacity="1"/>
<stop offset="0.375" stop-color="rgb(31.762695%, 56.68335%, 62.059021%)" stop-opacity="1"/>
<stop offset="0.378906" stop-color="rgb(31.562805%, 56.32782%, 61.669922%)" stop-opacity="1"/>
<stop offset="0.382812" stop-color="rgb(31.364441%, 55.97229%, 61.280823%)" stop-opacity="1"/>
<stop offset="0.386719" stop-color="rgb(31.164551%, 55.61676%, 60.891724%)" stop-opacity="1"/>
<stop offset="0.390625" stop-color="rgb(30.966187%, 55.262756%, 60.502625%)" stop-opacity="1"/>
<stop offset="0.394531" stop-color="rgb(30.766296%, 54.907227%, 60.113525%)" stop-opacity="1"/>
<stop offset="0.398438" stop-color="rgb(30.567932%, 54.551697%, 59.724426%)" stop-opacity="1"/>
<stop offset="0.402344" stop-color="rgb(30.368042%, 54.196167%, 59.335327%)" stop-opacity="1"/>
<stop offset="0.40625" stop-color="rgb(30.168152%, 53.840637%, 58.946228%)" stop-opacity="1"/>
<stop offset="0.410156" stop-color="rgb(29.969788%, 53.485107%, 58.557129%)" stop-opacity="1"/>
<stop offset="0.414062" stop-color="rgb(29.769897%, 53.129578%, 58.16803%)" stop-opacity="1"/>
<stop offset="0.417969" stop-color="rgb(29.571533%, 52.774048%, 57.778931%)" stop-opacity="1"/>
<stop offset="0.421875" stop-color="rgb(29.371643%, 52.418518%, 57.389832%)" stop-opacity="1"/>
<stop offset="0.425781" stop-color="rgb(29.173279%, 52.062988%, 57.000732%)" stop-opacity="1"/>
<stop offset="0.429688" stop-color="rgb(28.973389%, 51.707458%, 56.611633%)" stop-opacity="1"/>
<stop offset="0.433594" stop-color="rgb(28.775024%, 51.353455%, 56.222534%)" stop-opacity="1"/>
<stop offset="0.4375" stop-color="rgb(28.575134%, 50.997925%, 55.833435%)" stop-opacity="1"/>
<stop offset="0.441406" stop-color="rgb(28.37677%, 50.642395%, 55.444336%)" stop-opacity="1"/>
<stop offset="0.445312" stop-color="rgb(28.17688%, 50.286865%, 55.055237%)" stop-opacity="1"/>
<stop offset="0.449219" stop-color="rgb(27.978516%, 49.931335%, 54.666138%)" stop-opacity="1"/>
<stop offset="0.453125" stop-color="rgb(27.778625%, 49.575806%, 54.277039%)" stop-opacity="1"/>
<stop offset="0.457031" stop-color="rgb(27.580261%, 49.220276%, 53.887939%)" stop-opacity="1"/>
<stop offset="0.460938" stop-color="rgb(27.380371%, 48.864746%, 53.49884%)" stop-opacity="1"/>
<stop offset="0.464844" stop-color="rgb(27.182007%, 48.509216%, 53.109741%)" stop-opacity="1"/>
<stop offset="0.46875" stop-color="rgb(26.982117%, 48.153687%, 52.720642%)" stop-opacity="1"/>
<stop offset="0.472656" stop-color="rgb(26.783752%, 47.798157%, 52.331543%)" stop-opacity="1"/>
<stop offset="0.476562" stop-color="rgb(26.583862%, 47.444153%, 51.942444%)" stop-opacity="1"/>
<stop offset="0.480469" stop-color="rgb(26.385498%, 47.088623%, 51.553345%)" stop-opacity="1"/>
<stop offset="0.484375" stop-color="rgb(26.185608%, 46.733093%, 51.164246%)" stop-opacity="1"/>
<stop offset="0.488281" stop-color="rgb(25.987244%, 46.377563%, 50.775146%)" stop-opacity="1"/>
<stop offset="0.492188" stop-color="rgb(25.787354%, 46.022034%, 50.386047%)" stop-opacity="1"/>
<stop offset="0.496094" stop-color="rgb(25.588989%, 45.666504%, 49.996948%)" stop-opacity="1"/>
<stop offset="0.5" stop-color="rgb(25.389099%, 45.310974%, 49.607849%)" stop-opacity="1"/>
<stop offset="0.503906" stop-color="rgb(25.190735%, 44.955444%, 49.21875%)" stop-opacity="1"/>
<stop offset="0.507812" stop-color="rgb(24.990845%, 44.599915%, 48.829651%)" stop-opacity="1"/>
<stop offset="0.511719" stop-color="rgb(24.79248%, 44.244385%, 48.440552%)" stop-opacity="1"/>
<stop offset="0.515625" stop-color="rgb(24.59259%, 43.888855%, 48.051453%)" stop-opacity="1"/>
<stop offset="0.519531" stop-color="rgb(24.394226%, 43.533325%, 47.662354%)" stop-opacity="1"/>
<stop offset="0.523438" stop-color="rgb(24.194336%, 43.179321%, 47.273254%)" stop-opacity="1"/>
<stop offset="0.527344" stop-color="rgb(23.995972%, 42.823792%, 46.884155%)" stop-opacity="1"/>
<stop offset="0.53125" stop-color="rgb(23.796082%, 42.468262%, 46.495056%)" stop-opacity="1"/>
<stop offset="0.535156" stop-color="rgb(23.597717%, 42.112732%, 46.105957%)" stop-opacity="1"/>
<stop offset="0.539062" stop-color="rgb(23.397827%, 41.757202%, 45.716858%)" stop-opacity="1"/>
<stop offset="0.542969" stop-color="rgb(23.199463%, 41.401672%, 45.327759%)" stop-opacity="1"/>
<stop offset="0.546875" stop-color="rgb(22.999573%, 41.046143%, 44.93866%)" stop-opacity="1"/>
<stop offset="0.550781" stop-color="rgb(22.801208%, 40.690613%, 44.549561%)" stop-opacity="1"/>
<stop offset="0.554688" stop-color="rgb(22.601318%, 40.335083%, 44.160461%)" stop-opacity="1"/>
<stop offset="0.558594" stop-color="rgb(22.402954%, 39.979553%, 43.771362%)" stop-opacity="1"/>
<stop offset="0.5625" stop-color="rgb(22.203064%, 39.624023%, 43.382263%)" stop-opacity="1"/>
<stop offset="0.566406" stop-color="rgb(22.0047%, 39.27002%, 42.993164%)" stop-opacity="1"/>
<stop offset="0.570312" stop-color="rgb(21.80481%, 38.91449%, 42.604065%)" stop-opacity="1"/>
<stop offset="0.574219" stop-color="rgb(21.606445%, 38.55896%, 42.214966%)" stop-opacity="1"/>
<stop offset="0.578125" stop-color="rgb(21.406555%, 38.20343%, 41.825867%)" stop-opacity="1"/>
<stop offset="0.582031" stop-color="rgb(21.208191%, 37.8479%, 41.436768%)" stop-opacity="1"/>
<stop offset="0.585938" stop-color="rgb(21.008301%, 37.492371%, 41.047668%)" stop-opacity="1"/>
<stop offset="0.589844" stop-color="rgb(20.809937%, 37.136841%, 40.658569%)" stop-opacity="1"/>
<stop offset="0.59375" stop-color="rgb(20.610046%, 36.781311%, 40.26947%)" stop-opacity="1"/>
<stop offset="0.597656" stop-color="rgb(20.411682%, 36.425781%, 39.880371%)" stop-opacity="1"/>
<stop offset="0.601562" stop-color="rgb(20.211792%, 36.070251%, 39.491272%)" stop-opacity="1"/>
<stop offset="0.605469" stop-color="rgb(20.011902%, 35.714722%, 39.102173%)" stop-opacity="1"/>
<stop offset="0.609375" stop-color="rgb(19.813538%, 35.360718%, 38.713074%)" stop-opacity="1"/>
<stop offset="0.613281" stop-color="rgb(19.613647%, 35.005188%, 38.323975%)" stop-opacity="1"/>
<stop offset="0.617188" stop-color="rgb(19.415283%, 34.649658%, 37.934875%)" stop-opacity="1"/>
<stop offset="0.621094" stop-color="rgb(19.215393%, 34.294128%, 37.545776%)" stop-opacity="1"/>
<stop offset="0.625" stop-color="rgb(19.017029%, 33.938599%, 37.156677%)" stop-opacity="1"/>
<stop offset="0.628906" stop-color="rgb(18.817139%, 33.583069%, 36.767578%)" stop-opacity="1"/>
<stop offset="0.632812" stop-color="rgb(18.618774%, 33.227539%, 36.378479%)" stop-opacity="1"/>
<stop offset="0.636719" stop-color="rgb(18.418884%, 32.872009%, 35.98938%)" stop-opacity="1"/>
<stop offset="0.640625" stop-color="rgb(18.22052%, 32.516479%, 35.600281%)" stop-opacity="1"/>
<stop offset="0.644531" stop-color="rgb(18.02063%, 32.16095%, 35.211182%)" stop-opacity="1"/>
<stop offset="0.648438" stop-color="rgb(17.822266%, 31.80542%, 34.822083%)" stop-opacity="1"/>
<stop offset="0.652344" stop-color="rgb(17.622375%, 31.451416%, 34.432983%)" stop-opacity="1"/>
<stop offset="0.65625" stop-color="rgb(17.424011%, 31.095886%, 34.043884%)" stop-opacity="1"/>
<stop offset="0.660156" stop-color="rgb(17.224121%, 30.740356%, 33.654785%)" stop-opacity="1"/>
<stop offset="0.664062" stop-color="rgb(17.025757%, 30.384827%, 33.265686%)" stop-opacity="1"/>
<stop offset="0.667969" stop-color="rgb(16.825867%, 30.029297%, 32.876587%)" stop-opacity="1"/>
<stop offset="0.671875" stop-color="rgb(16.627502%, 29.673767%, 32.487488%)" stop-opacity="1"/>
<stop offset="0.675781" stop-color="rgb(16.427612%, 29.318237%, 32.098389%)" stop-opacity="1"/>
<stop offset="0.679688" stop-color="rgb(16.229248%, 28.962708%, 31.70929%)" stop-opacity="1"/>
<stop offset="0.683594" stop-color="rgb(16.029358%, 28.607178%, 31.32019%)" stop-opacity="1"/>
<stop offset="0.6875" stop-color="rgb(15.830994%, 28.251648%, 30.931091%)" stop-opacity="1"/>
<stop offset="0.691406" stop-color="rgb(15.631104%, 27.896118%, 30.541992%)" stop-opacity="1"/>
<stop offset="0.695312" stop-color="rgb(15.432739%, 27.542114%, 30.152893%)" stop-opacity="1"/>
<stop offset="0.699219" stop-color="rgb(15.232849%, 27.186584%, 29.763794%)" stop-opacity="1"/>
<stop offset="0.703125" stop-color="rgb(15.034485%, 26.831055%, 29.374695%)" stop-opacity="1"/>
<stop offset="0.707031" stop-color="rgb(14.834595%, 26.475525%, 28.985596%)" stop-opacity="1"/>
<stop offset="0.710938" stop-color="rgb(14.63623%, 26.119995%, 28.596497%)" stop-opacity="1"/>
<stop offset="0.714844" stop-color="rgb(14.43634%, 25.764465%, 28.207397%)" stop-opacity="1"/>
<stop offset="0.71875" stop-color="rgb(14.237976%, 25.408936%, 27.818298%)" stop-opacity="1"/>
<stop offset="0.722656" stop-color="rgb(14.038086%, 25.053406%, 27.429199%)" stop-opacity="1"/>
<stop offset="0.726562" stop-color="rgb(13.839722%, 24.697876%, 27.0401%)" stop-opacity="1"/>
<stop offset="0.730469" stop-color="rgb(13.639832%, 24.342346%, 26.651001%)" stop-opacity="1"/>
<stop offset="0.734375" stop-color="rgb(13.441467%, 23.986816%, 26.261902%)" stop-opacity="1"/>
<stop offset="0.738281" stop-color="rgb(13.241577%, 23.632812%, 25.872803%)" stop-opacity="1"/>
<stop offset="0.742188" stop-color="rgb(13.043213%, 23.277283%, 25.483704%)" stop-opacity="1"/>
<stop offset="0.746094" stop-color="rgb(12.843323%, 22.921753%, 25.094604%)" stop-opacity="1"/>
<stop offset="0.75" stop-color="rgb(12.644958%, 22.566223%, 24.705505%)" stop-opacity="1"/>
<stop offset="0.753906" stop-color="rgb(12.445068%, 22.210693%, 24.316406%)" stop-opacity="1"/>
<stop offset="0.757812" stop-color="rgb(12.246704%, 21.855164%, 23.927307%)" stop-opacity="1"/>
<stop offset="0.761719" stop-color="rgb(12.046814%, 21.499634%, 23.538208%)" stop-opacity="1"/>
<stop offset="0.765625" stop-color="rgb(11.84845%, 21.144104%, 23.149109%)" stop-opacity="1"/>
<stop offset="0.769531" stop-color="rgb(11.64856%, 20.788574%, 22.76001%)" stop-opacity="1"/>
<stop offset="0.773438" stop-color="rgb(11.450195%, 20.433044%, 22.370911%)" stop-opacity="1"/>
<stop offset="0.777344" stop-color="rgb(11.250305%, 20.077515%, 21.981812%)" stop-opacity="1"/>
<stop offset="0.78125" stop-color="rgb(11.051941%, 19.723511%, 21.592712%)" stop-opacity="1"/>
<stop offset="0.785156" stop-color="rgb(10.852051%, 19.367981%, 21.203613%)" stop-opacity="1"/>
<stop offset="0.789062" stop-color="rgb(10.653687%, 19.012451%, 20.814514%)" stop-opacity="1"/>
<stop offset="0.792969" stop-color="rgb(10.453796%, 18.656921%, 20.425415%)" stop-opacity="1"/>
<stop offset="0.796875" stop-color="rgb(10.255432%, 18.301392%, 20.036316%)" stop-opacity="1"/>
<stop offset="0.800781" stop-color="rgb(10.055542%, 17.945862%, 19.647217%)" stop-opacity="1"/>
<stop offset="0.804688" stop-color="rgb(9.855652%, 17.590332%, 19.258118%)" stop-opacity="1"/>
<stop offset="0.808594" stop-color="rgb(9.657288%, 17.234802%, 18.869019%)" stop-opacity="1"/>
<stop offset="0.8125" stop-color="rgb(9.457397%, 16.879272%, 18.479919%)" stop-opacity="1"/>
<stop offset="0.816406" stop-color="rgb(9.259033%, 16.523743%, 18.09082%)" stop-opacity="1"/>
<stop offset="0.820312" stop-color="rgb(9.059143%, 16.168213%, 17.701721%)" stop-opacity="1"/>
<stop offset="0.824219" stop-color="rgb(8.860779%, 15.814209%, 17.312622%)" stop-opacity="1"/>
<stop offset="0.828125" stop-color="rgb(8.660889%, 15.458679%, 16.923523%)" stop-opacity="1"/>
<stop offset="0.832031" stop-color="rgb(8.462524%, 15.103149%, 16.534424%)" stop-opacity="1"/>
<stop offset="0.835938" stop-color="rgb(8.262634%, 14.74762%, 16.145325%)" stop-opacity="1"/>
<stop offset="0.839844" stop-color="rgb(8.06427%, 14.39209%, 15.756226%)" stop-opacity="1"/>
<stop offset="0.84375" stop-color="rgb(7.86438%, 14.03656%, 15.367126%)" stop-opacity="1"/>
<stop offset="0.847656" stop-color="rgb(7.666016%, 13.68103%, 14.978027%)" stop-opacity="1"/>
<stop offset="0.851562" stop-color="rgb(7.466125%, 13.3255%, 14.588928%)" stop-opacity="1"/>
<stop offset="0.855469" stop-color="rgb(7.267761%, 12.969971%, 14.199829%)" stop-opacity="1"/>
<stop offset="0.859375" stop-color="rgb(7.067871%, 12.614441%, 13.81073%)" stop-opacity="1"/>
<stop offset="0.863281" stop-color="rgb(6.869507%, 12.258911%, 13.421631%)" stop-opacity="1"/>
<stop offset="0.867188" stop-color="rgb(6.669617%, 11.904907%, 13.032532%)" stop-opacity="1"/>
<stop offset="0.871094" stop-color="rgb(6.471252%, 11.549377%, 12.643433%)" stop-opacity="1"/>
<stop offset="0.875" stop-color="rgb(6.271362%, 11.193848%, 12.254333%)" stop-opacity="1"/>
<stop offset="0.878906" stop-color="rgb(6.072998%, 10.838318%, 11.865234%)" stop-opacity="1"/>
<stop offset="0.882812" stop-color="rgb(5.873108%, 10.482788%, 11.476135%)" stop-opacity="1"/>
<stop offset="0.886719" stop-color="rgb(5.674744%, 10.127258%, 11.087036%)" stop-opacity="1"/>
<stop offset="0.890625" stop-color="rgb(5.474854%, 9.771729%, 10.697937%)" stop-opacity="1"/>
<stop offset="0.894531" stop-color="rgb(5.276489%, 9.416199%, 10.308838%)" stop-opacity="1"/>
<stop offset="0.898438" stop-color="rgb(5.076599%, 9.060669%, 9.919739%)" stop-opacity="1"/>
<stop offset="0.902344" stop-color="rgb(4.878235%, 8.705139%, 9.53064%)" stop-opacity="1"/>
<stop offset="0.90625" stop-color="rgb(4.678345%, 8.349609%, 9.141541%)" stop-opacity="1"/>
<stop offset="0.910156" stop-color="rgb(4.47998%, 7.995605%, 8.752441%)" stop-opacity="1"/>
<stop offset="0.914062" stop-color="rgb(4.28009%, 7.640076%, 8.363342%)" stop-opacity="1"/>
<stop offset="0.917969" stop-color="rgb(4.081726%, 7.284546%, 7.974243%)" stop-opacity="1"/>
<stop offset="0.921875" stop-color="rgb(3.881836%, 6.929016%, 7.585144%)" stop-opacity="1"/>
<stop offset="0.925781" stop-color="rgb(3.683472%, 6.573486%, 7.196045%)" stop-opacity="1"/>
<stop offset="0.929688" stop-color="rgb(3.483582%, 6.217957%, 6.806946%)" stop-opacity="1"/>
<stop offset="0.933594" stop-color="rgb(3.285217%, 5.862427%, 6.417847%)" stop-opacity="1"/>
<stop offset="0.9375" stop-color="rgb(3.085327%, 5.506897%, 6.028748%)" stop-opacity="1"/>
<stop offset="0.941406" stop-color="rgb(2.886963%, 5.151367%, 5.639648%)" stop-opacity="1"/>
<stop offset="0.945312" stop-color="rgb(2.687073%, 4.795837%, 5.250549%)" stop-opacity="1"/>
<stop offset="0.949219" stop-color="rgb(2.488708%, 4.440308%, 4.86145%)" stop-opacity="1"/>
<stop offset="0.953125" stop-color="rgb(2.288818%, 4.086304%, 4.472351%)" stop-opacity="1"/>
<stop offset="0.957031" stop-color="rgb(2.090454%, 3.730774%, 4.083252%)" stop-opacity="1"/>
<stop offset="0.960938" stop-color="rgb(1.890564%, 3.375244%, 3.694153%)" stop-opacity="1"/>
<stop offset="0.964844" stop-color="rgb(1.6922%, 3.019714%, 3.305054%)" stop-opacity="1"/>
<stop offset="0.96875" stop-color="rgb(1.49231%, 2.664185%, 2.915955%)" stop-opacity="1"/>
<stop offset="0.972656" stop-color="rgb(1.293945%, 2.308655%, 2.526855%)" stop-opacity="1"/>
<stop offset="0.976562" stop-color="rgb(1.094055%, 1.953125%, 2.137756%)" stop-opacity="1"/>
<stop offset="0.980469" stop-color="rgb(0.895691%, 1.597595%, 1.748657%)" stop-opacity="1"/>
<stop offset="0.984375" stop-color="rgb(0.695801%, 1.242065%, 1.359558%)" stop-opacity="1"/>
<stop offset="0.988281" stop-color="rgb(0.497437%, 0.886536%, 0.970459%)" stop-opacity="1"/>
<stop offset="0.992188" stop-color="rgb(0.297546%, 0.531006%, 0.58136%)" stop-opacity="1"/>
<stop offset="0.996094" stop-color="rgb(0.0991821%, 0.177002%, 0.193787%)" stop-opacity="1"/>
<stop offset="1" stop-color="rgb(0%, 0%, 0%)" stop-opacity="1"/>
</radialGradient>
</defs>
<g clip-path="url(#clip-0)">
<g clip-path="url(#clip-1)">
<path fill-rule="nonzero" fill="url(#radial-pattern-0)" d="M 0 0 L 0 3499.5 L 3499.5 3499.5 L 3499.5 0 Z M 0 0 "/>
</g>
</g>
<path fill-rule="nonzero" fill="rgb(50.976562%, 91.014099%, 99.609375%)" fill-opacity="1" d="M 1300.941406 799.5 C 1271.890625 799.5 1248.339844 823.050781 1248.339844 852.101562 L 1248.339844 852.109375 C 1248.339844 881.160156 1271.890625 904.710938 1300.941406 904.710938 C 1305.339844 904.710938 1309.609375 904.171875 1313.691406 903.148438 L 1313.71875 903.148438 L 1498.289062 1087.71875 L 1498.289062 1300.921875 C 1498.289062 1308.101562 1501.140625 1314.980469 1506.210938 1320.058594 L 1730.628906 1544.460938 C 1735.910156 1549.75 1742.828125 1552.390625 1749.761719 1552.390625 C 1749.828125 1552.390625 1749.910156 1552.390625 1749.980469 1552.390625 L 1750 1552.390625 L 1749.761719 1552.390625 C 1757.230469 1552.390625 1764 1549.359375 1768.890625 1544.460938 L 1768.890625 1544.46875 L 1993.300781 1320.058594 C 1998.378906 1314.980469 2001.230469 1308.101562 2001.230469 1300.921875 L 2001.230469 1087.730469 L 2185.800781 903.148438 L 2185.820312 903.148438 C 2189.898438 904.171875 2194.179688 904.710938 2198.578125 904.710938 C 2227.628906 904.710938 2251.179688 881.160156 2251.179688 852.109375 L 2251.179688 852.101562 C 2251.179688 823.050781 2227.628906 799.5 2198.578125 799.5 C 2169.519531 799.5 2145.96875 823.050781 2145.96875 852.101562 L 2145.96875 852.109375 C 2145.96875 856.519531 2146.519531 860.800781 2147.539062 864.890625 L 2147.519531 864.890625 L 1955.039062 1057.378906 C 1949.960938 1062.449219 1947.109375 1069.339844 1947.109375 1076.511719 L 1947.109375 1289.71875 L 1776.820312 1460 L 1776.820312 1121.648438 L 1776.789062 1121.648438 C 1792.109375 1112.449219 1802.359375 1095.679688 1802.359375 1076.519531 L 1802.359375 1076.511719 C 1802.359375 1047.460938 1778.808594 1023.910156 1749.761719 1023.910156 C 1720.710938 1023.910156 1697.148438 1047.460938 1697.148438 1076.511719 L 1697.148438 1076.519531 C 1697.148438 1095.679688 1707.398438 1112.449219 1722.71875 1121.648438 L 1722.699219 1121.648438 L 1722.699219 1460 L 1552.410156 1289.710938 L 1552.410156 1076.511719 C 1552.410156 1069.339844 1549.558594 1062.449219 1544.480469 1057.378906 L 1352 864.898438 L 1351.980469 864.898438 C 1353 860.808594 1353.539062 856.519531 1353.539062 852.109375 L 1353.539062 852.101562 C 1353.539062 823.050781 1329.988281 799.5 1300.941406 799.5 Z M 403.300781 1023.910156 C 374.246094 1023.910156 350.695312 1047.460938 350.695312 1076.511719 C 350.695312 1105.570312 374.246094 1129.121094 403.300781 1129.121094 C 407.695312 1129.121094 411.964844 1128.578125 416.046875 1127.558594 L 416.082031 1127.558594 L 608.574219 1320.058594 C 613.648438 1325.128906 620.53125 1327.980469 627.707031 1327.980469 L 1289.730469 1327.980469 L 1289.730469 1327.988281 L 1460.019531 1498.28125 L 897.269531 1498.269531 L 897.242188 1498.269531 C 888.042969 1482.960938 871.277344 1472.71875 852.117188 1472.71875 C 823.066406 1472.71875 799.515625 1496.28125 799.515625 1525.328125 C 799.515625 1554.378906 823.066406 1577.941406 852.117188 1577.941406 C 871.277344 1577.941406 888.042969 1567.691406 897.238281 1552.390625 L 1525.351562 1552.390625 C 1532.820312 1552.390625 1539.578125 1549.371094 1544.480469 1544.46875 C 1555.050781 1533.898438 1555.050781 1516.769531 1544.480469 1506.199219 L 1320.070312 1281.789062 C 1315 1276.710938 1308.121094 1273.859375 1300.941406 1273.859375 L 638.917969 1273.871094 L 454.371094 1089.320312 L 454.335938 1089.320312 C 455.359375 1085.21875 455.902344 1080.929688 455.902344 1076.511719 C 455.902344 1047.460938 432.351562 1023.910156 403.300781 1023.910156 Z M 3096.21875 1023.910156 C 3067.160156 1023.910156 3043.609375 1047.460938 3043.609375 1076.511719 L 3043.609375 1076.519531 C 3043.609375 1080.921875 3044.160156 1085.199219 3045.179688 1089.300781 L 3045.171875 1089.300781 L 2860.601562 1273.859375 L 2860.601562 1273.871094 L 2198.578125 1273.859375 C 2191.398438 1273.859375 2184.519531 1276.710938 2179.449219 1281.789062 L 1955.039062 1506.199219 C 1944.46875 1516.769531 1944.46875 1533.898438 1955.039062 1544.460938 C 1960.320312 1549.75 1967.238281 1552.390625 1974.171875 1552.390625 C 1974.269531 1552.390625 1974.371094 1552.390625 1974.46875 1552.390625 L 2602.289062 1552.390625 L 2602.28125 1552.390625 C 2611.480469 1567.699219 2628.238281 1577.941406 2647.398438 1577.941406 C 2676.449219 1577.941406 2700 1554.390625 2700 1525.328125 C 2700 1496.28125 2676.449219 1472.730469 2647.398438 1472.730469 C 2628.238281 1472.730469 2611.480469 1482.960938 2602.28125 1498.269531 L 2602.261719 1498.269531 L 2039.5 1498.28125 L 2209.789062 1327.980469 L 2209.789062 1327.988281 L 2871.808594 1327.980469 C 2878.980469 1327.980469 2885.871094 1325.128906 2890.941406 1320.058594 L 3083.441406 1127.558594 L 3083.449219 1127.558594 C 3087.539062 1128.578125 3091.808594 1129.121094 3096.21875 1129.121094 C 3125.269531 1129.121094 3148.820312 1105.570312 3148.820312 1076.519531 L 3148.820312 1076.511719 C 3148.820312 1047.460938 3125.269531 1023.910156 3096.21875 1023.910156 Z M 1525.351562 1722.679688 L 1076.53125 1722.691406 C 1069.351562 1722.691406 1062.46875 1725.539062 1057.390625 1730.609375 L 840.910156 1947.089844 L 840.910156 1947.101562 L 224.015625 1947.101562 C 214.816406 1931.789062 198.050781 1921.539062 178.890625 1921.539062 C 149.835938 1921.539062 126.285156 1945.101562 126.285156 1974.148438 C 126.285156 2003.199219 149.835938 2026.75 178.890625 2026.75 C 198.042969 2026.75 214.808594 2016.519531 224.007812 2001.210938 L 223.96875 2001.210938 L 852.121094 2001.210938 C 859.296875 2001.210938 866.179688 1998.359375 871.253906 1993.28125 L 1087.738281 1776.808594 L 1525.351562 1776.800781 C 1540.289062 1776.800781 1552.410156 1764.691406 1552.410156 1749.738281 C 1552.410156 1734.800781 1540.289062 1722.679688 1525.351562 1722.679688 Z M 1974.171875 1722.679688 C 1959.21875 1722.679688 1947.109375 1734.800781 1947.109375 1749.738281 C 1947.109375 1764.679688 1959.21875 1776.800781 1974.171875 1776.800781 L 2411.78125 1776.808594 L 2628.269531 1993.28125 C 2633.339844 1998.359375 2640.21875 2001.210938 2647.398438 2001.210938 L 3275.519531 2001.210938 L 3275.511719 2001.210938 C 3284.710938 2016.519531 3301.46875 2026.761719 3320.628906 2026.761719 C 3349.679688 2026.761719 3373.230469 2003.199219 3373.230469 1974.148438 C 3373.230469 1945.101562 3349.679688 1921.550781 3320.628906 1921.550781 C 3301.46875 1921.550781 3284.699219 1931.789062 3275.5 1947.101562 L 2658.609375 1947.089844 L 2658.609375 1947.101562 L 2442.121094 1730.609375 C 2437.050781 1725.539062 2430.160156 1722.691406 2422.988281 1722.691406 Z M 1525.351562 1947.089844 C 1518.421875 1947.089844 1511.5 1949.730469 1506.210938 1955.019531 L 1289.730469 2171.5 L 1289.730469 2171.511719 L 672.835938 2171.511719 C 663.636719 2156.199219 646.871094 2145.949219 627.710938 2145.949219 C 598.65625 2145.949219 575.105469 2169.511719 575.105469 2198.558594 C 575.105469 2227.609375 598.65625 2251.160156 627.710938 2251.160156 C 646.863281 2251.160156 663.628906 2240.929688 672.828125 2225.621094 L 672.792969 2225.621094 L 1300.941406 2225.621094 C 1308.121094 2225.621094 1315 2222.769531 1320.070312 2217.691406 L 1544.480469 1993.28125 C 1555.050781 1982.71875 1555.050781 1965.578125 1544.480469 1955.019531 C 1539.199219 1949.730469 1532.269531 1947.089844 1525.351562 1947.089844 Z M 1974.171875 1947.089844 C 1967.238281 1947.089844 1960.320312 1949.730469 1955.039062 1955.019531 C 1944.46875 1965.578125 1944.46875 1982.710938 1955.039062 1993.28125 L 2179.449219 2217.691406 C 2184.519531 2222.769531 2191.398438 2225.621094 2198.578125 2225.621094 L 2826.679688 2225.621094 C 2835.878906 2240.929688 2852.648438 2251.160156 2871.808594 2251.160156 C 2900.859375 2251.160156 2924.410156 2227.609375 2924.410156 2198.558594 C 2924.410156 2169.511719 2900.859375 2145.949219 2871.808594 2145.949219 C 2852.648438 2145.949219 2835.890625 2156.191406 2826.691406 2171.5 L 2209.789062 2171.5 L 2209.789062 2171.511719 L 1993.300781 1955.019531 C 1988.019531 1949.730469 1981.089844 1947.089844 1974.171875 1947.089844 Z M 1749.761719 1947.089844 C 1734.808594 1947.089844 1722.699219 1959.210938 1722.699219 1974.148438 L 1722.699219 2187.351562 L 1514.140625 2395.910156 L 1514.140625 2395.921875 L 1121.648438 2395.921875 C 1112.460938 2380.609375 1095.691406 2370.359375 1076.53125 2370.359375 C 1047.480469 2370.359375 1023.929688 2393.910156 1023.929688 2422.96875 C 1023.929688 2452.019531 1047.480469 2475.570312 1076.53125 2475.570312 C 1095.679688 2475.570312 1112.449219 2465.339844 1121.648438 2450.03125 L 1121.621094 2450.03125 L 1525.351562 2450.03125 C 1532.519531 2450.03125 1539.410156 2447.179688 1544.480469 2442.109375 L 1722.699219 2263.890625 L 1722.699219 2602.269531 L 1722.679688 2602.273438 C 1707.378906 2611.472656 1697.148438 2628.230469 1697.148438 2647.378906 C 1697.148438 2676.433594 1720.710938 2699.984375 1749.761719 2699.984375 C 1778.808594 2699.984375 1802.359375 2676.433594 1802.359375 2647.378906 C 1802.359375 2628.230469 1792.128906 2611.472656 1776.839844 2602.269531 L 1776.820312 2602.273438 L 1776.820312 2263.890625 L 1955.039062 2442.109375 C 1960.109375 2447.179688 1966.988281 2450.03125 1974.171875 2450.03125 L 2377.878906 2450.03125 L 2377.871094 2450.03125 C 2387.070312 2465.339844 2403.828125 2475.578125 2422.988281 2475.578125 C 2452.039062 2475.578125 2475.589844 2452.019531 2475.589844 2422.96875 C 2475.589844 2393.910156 2452.039062 2370.359375 2422.988281 2370.359375 C 2403.828125 2370.359375 2387.058594 2380.609375 2377.859375 2395.910156 L 1985.378906 2395.910156 L 1985.378906 2395.921875 L 1776.820312 2187.351562 L 1776.820312 1974.148438 C 1776.820312 1959.210938 1764.699219 1947.089844 1749.761719 1947.089844 Z M 1749.761719 1947.089844 "/>
<path fill-rule="nonzero" fill="rgb(50.976562%, 91.014099%, 99.609375%)" fill-opacity="1" d="M 1749.738281 1343.410156 C 1743.628906 1347.691406 1736.191406 1352.570312 1727.289062 1357.921875 C 1697.128906 1376.019531 1650.148438 1399.371094 1580.949219 1422.441406 C 1512.839844 1445.140625 1466.699219 1456.730469 1437.160156 1462.640625 L 1437.160156 1462.648438 L 1437.109375 1462.648438 C 1432.328125 1463.609375 1427.988281 1464.410156 1424.050781 1465.101562 L 1424.078125 1465.109375 L 1424.078125 1749.78125 C 1424.078125 1869.578125 1504.441406 1973.261719 1592.058594 2049.921875 C 1592.5 2050.308594 1592.929688 2050.691406 1593.359375 2051.089844 L 1593.390625 2051.101562 C 1636.058594 2088.261719 1678.78125 2117.621094 1711 2137.761719 L 1711.28125 2137.929688 L 1711.28125 2137.941406 C 1727.230469 2147.890625 1740.449219 2155.5 1749.761719 2160.660156 L 1749.761719 2160.671875 C 1758.890625 2155.601562 1771.738281 2148.210938 1787.230469 2138.558594 L 1787.261719 2138.570312 C 1787.679688 2138.28125 1788.101562 2138.019531 1788.53125 2137.75 L 1788.539062 2137.75 C 1821.101562 2117.390625 1864.339844 2087.640625 1907.449219 2049.921875 L 1907.460938 2049.929688 C 1995.070312 1973.261719 2075.441406 1869.578125 2075.441406 1749.78125 L 2075.441406 1465.101562 L 2075.46875 1465.109375 C 2071.96875 1464.488281 2068.160156 1463.789062 2064.019531 1462.980469 L 2064.039062 1462.980469 C 2063.121094 1462.808594 2062.191406 1462.628906 2061.269531 1462.429688 L 2061.289062 1462.441406 C 2031.691406 1456.449219 1985.878906 1444.871094 1918.558594 1422.441406 C 1849.910156 1399.558594 1803.128906 1376.378906 1772.941406 1358.351562 L 1772.96875 1358.359375 L 1772.199219 1357.898438 C 1763.320312 1352.570312 1755.890625 1347.691406 1749.769531 1343.410156 Z M 1749.738281 1343.410156 "/>
<path fill-rule="nonzero" fill="rgb(80.859375%, 96.875%, 99.609375%)" fill-opacity="1" d="M 1749.75 1411.828125 C 1712.71875 1432.25 1662.230469 1455.371094 1595 1477.789062 L 1595 1477.800781 L 1593.941406 1478.128906 L 1593.960938 1478.140625 C 1550.011719 1492.769531 1513.75 1503.410156 1484.058594 1511.160156 L 1484.089844 1511.171875 L 1484.089844 1749.578125 C 1484.089844 1840.691406 1546.730469 1930.710938 1635.839844 2008.679688 L 1635.839844 2008.691406 C 1636.460938 2009.230469 1637.058594 2009.75 1637.648438 2010.289062 L 1637.671875 2010.300781 C 1677.789062 2045.179688 1718.308594 2073.28125 1749.761719 2093.109375 L 1749.761719 2093.121094 C 1781.699219 2072.96875 1822.96875 2044.308594 1863.679688 2008.679688 L 1863.679688 2008.691406 C 1952.789062 1930.710938 2015.429688 1840.691406 2015.429688 1749.578125 L 2015.429688 1511.160156 L 2015.449219 1511.171875 C 1985.539062 1503.351562 1948.949219 1492.601562 1904.519531 1477.789062 L 1904.519531 1477.800781 C 1837.289062 1455.378906 1786.800781 1432.238281 1749.769531 1411.828125 Z M 1749.75 1411.828125 "/>
<path fill-rule="nonzero" fill="rgb(80.46875%, 96.484375%, 99.609375%)" fill-opacity="1" d="M 1749.75 1240 C 1749.019531 1240 1748.378906 1240.011719 1747.628906 1240.03125 L 1747.640625 1240.039062 C 1631.039062 1242.980469 1530.148438 1276.558594 1444.960938 1340.78125 L 1444.980469 1340.789062 L 1488.25 1384.050781 C 1562.109375 1330.820312 1649.078125 1302.941406 1749.160156 1300.421875 C 1749.359375 1300.410156 1749.558594 1300.410156 1749.75 1300.410156 C 1749.941406 1300.410156 1750.140625 1300.410156 1750.328125 1300.421875 C 1850.421875 1302.941406 1937.390625 1330.820312 2011.238281 1384.050781 L 2054.511719 1340.78125 L 2054.53125 1340.789062 C 1969.339844 1276.558594 1868.449219 1242.96875 1751.851562 1240.03125 L 1751.871094 1240.039062 C 1751.121094 1240.011719 1750.460938 1240 1749.75 1240 Z M 1823.429688 1052.589844 L 1823.429688 1102.679688 L 1823.449219 1102.679688 C 1974.660156 1119.871094 2103.730469 1181.929688 2210.648438 1288.851562 L 2210.648438 1288.859375 C 2210.648438 1288.851562 2210.648438 1288.851562 2210.648438 1288.851562 C 2317.570312 1395.769531 2379.628906 1524.839844 2396.820312 1676.058594 L 2446.910156 1676.070312 C 2429.5 1511.109375 2362.46875 1370.308594 2245.828125 1253.671875 L 2245.828125 1253.679688 C 2129.191406 1137.039062 1988.398438 1070.011719 1823.449219 1052.589844 Z M 1676.039062 1052.589844 C 1511.089844 1070.011719 1370.308594 1137.039062 1253.671875 1253.671875 L 1253.660156 1253.679688 C 1137.019531 1370.320312 1070 1511.109375 1052.578125 1676.070312 L 1102.671875 1676.070312 C 1119.859375 1524.851562 1181.921875 1395.769531 1288.839844 1288.851562 L 1288.839844 1288.859375 C 1395.769531 1181.929688 1524.828125 1119.871094 1676.039062 1102.679688 L 1676.058594 1102.679688 L 1676.058594 1052.589844 Z M 1340.75 1444.988281 C 1276.539062 1530.179688 1242.96875 1631.058594 1240.03125 1747.640625 L 1240.03125 1747.648438 C 1240.011719 1748.429688 1240 1749.191406 1240 1749.988281 C 1240.128906 1796.828125 1246.21875 1841.960938 1258.261719 1885.371094 L 1258.269531 1885.378906 C 1258.738281 1887.089844 1259.269531 1888.789062 1259.851562 1890.460938 L 1259.851562 1890.46875 L 1278.121094 1943.058594 C 1278.730469 1944.828125 1279.410156 1946.601562 1280.140625 1948.308594 L 1280.140625 1948.320312 C 1296.289062 1986.308594 1316.558594 2021.648438 1340.960938 2054.328125 L 1384.171875 2011.121094 L 1384.191406 2011.121094 C 1364.980469 1984.308594 1348.828125 1955.5 1335.738281 1924.691406 C 1335.539062 1924.210938 1335.351562 1923.730469 1335.179688 1923.238281 L 1316.910156 1870.640625 C 1316.75 1870.179688 1316.609375 1869.699219 1316.46875 1869.230469 C 1305.878906 1831.039062 1300.53125 1791.230469 1300.410156 1749.820312 L 1300.410156 1749.171875 C 1302.941406 1649.089844 1330.808594 1562.121094 1384.03125 1488.269531 L 1384.058594 1488.269531 L 1340.78125 1444.988281 Z M 2158.71875 1444.988281 L 2115.441406 1488.269531 L 2115.460938 1488.269531 C 2168.679688 1562.121094 2196.558594 1649.089844 2199.078125 1749.171875 C 2199.101562 1749.878906 2199.078125 1750.589844 2199.039062 1751.300781 L 2195.140625 1809.140625 C 2195.101562 1809.828125 2195.019531 1810.519531 2194.910156 1811.199219 C 2182.878906 1887.199219 2156.378906 1953.871094 2115.378906 2011.191406 L 2115.398438 2011.199219 L 2158.78125 2054.578125 C 2208.46875 1988.179688 2240.398438 1910.199219 2254.578125 1820.640625 C 2254.96875 1818.171875 2255.25 1815.691406 2255.410156 1813.191406 L 2259.308594 1755.351562 L 2259.308594 1755.359375 C 2259.480469 1752.789062 2259.53125 1750.21875 2259.46875 1747.640625 L 2259.46875 1747.648438 C 2256.53125 1631.058594 2222.949219 1530.171875 2158.730469 1444.988281 Z M 2011.109375 2115.339844 C 1934.320312 2170.679688 1846.921875 2198.339844 1748.921875 2198.339844 C 1729.488281 2198.339844 1709.660156 2197.25 1689.429688 2195.070312 C 1689.050781 2195.019531 1688.671875 2194.96875 1688.300781 2194.910156 C 1612.300781 2182.890625 1545.640625 2156.378906 1488.320312 2115.398438 L 1488.300781 2115.410156 L 1444.910156 2158.789062 L 1444.929688 2158.800781 C 1511.320312 2208.480469 1589.300781 2240.410156 1678.859375 2254.578125 L 1678.859375 2254.589844 C 1680.25 2254.800781 1681.550781 2254.96875 1682.929688 2255.121094 L 1682.941406 2255.121094 C 1705.320312 2257.539062 1727.320312 2258.75 1748.921875 2258.75 C 1863.359375 2258.75 1965.160156 2225.351562 2054.320312 2158.550781 L 2054.339844 2158.550781 L 2011.128906 2115.339844 Z M 2446.980469 1823.441406 L 2397.101562 1823.441406 L 2397.109375 1823.441406 C 2396.660156 1829.941406 2395.921875 1836.410156 2394.890625 1842.851562 L 2394.890625 1842.859375 C 2367.191406 2017.929688 2285.230469 2158.628906 2149.03125 2264.980469 L 2149.019531 2264.988281 L 2148.851562 2265.121094 L 2148.789062 2265.160156 L 2148.5 2265.390625 L 2148.46875 2265.410156 L 2148.371094 2265.488281 C 2051.628906 2340.441406 1943.308594 2384.269531 1823.410156 2396.949219 L 1823.429688 2396.949219 L 1823.429688 2446.988281 C 1954.558594 2434.171875 2072.988281 2386.800781 2178.75 2304.890625 L 2178.859375 2304.800781 L 2178.929688 2304.738281 L 2179.070312 2304.640625 L 2179.101562 2304.609375 L 2179.300781 2304.460938 L 2179.5 2304.300781 L 2179.628906 2304.199219 L 2179.640625 2304.191406 L 2179.648438 2304.191406 C 2326.148438 2189.800781 2414.28125 2038.609375 2444.039062 1850.628906 L 2444.039062 1850.640625 C 2445.320312 1842.480469 2446.25 1834.289062 2446.800781 1826.070312 Z M 1052.039062 1823.441406 C 1056.019531 1861.691406 1063.078125 1899.179688 1073.21875 1935.921875 L 1073.210938 1935.929688 L 1073.230469 1936.050781 L 1073.261719 1936.058594 C 1073.308594 1936.25 1073.371094 1936.441406 1073.421875 1936.640625 C 1073.519531 1936.988281 1073.609375 1937.339844 1073.691406 1937.691406 L 1073.710938 1937.691406 C 1075.210938 1942.980469 1076.839844 1948.191406 1078.648438 1953.390625 L 1078.660156 1953.421875 C 1078.839844 1953.960938 1079.019531 1954.460938 1079.238281 1955.03125 C 1079.300781 1955.191406 1079.359375 1955.359375 1079.421875 1955.53125 L 1079.390625 1955.53125 L 1096.921875 2006 C 1098.941406 2011.828125 1101.191406 2017.640625 1103.609375 2023.339844 C 1127.371094 2079.261719 1157.691406 2131.050781 1194.589844 2178.71875 L 1194.570312 2178.730469 C 1194.648438 2178.808594 1194.71875 2178.910156 1194.800781 2179 L 1194.808594 2179.011719 L 1195.078125 2179.359375 C 1195.089844 2179.359375 1195.089844 2179.359375 1195.089844 2179.359375 L 1195.089844 2179.371094 L 1195.191406 2179.511719 C 1195.371094 2179.730469 1195.539062 2179.960938 1195.710938 2180.191406 L 1195.730469 2180.199219 C 1310.070312 2326.378906 1461.121094 2414.320312 1648.871094 2444.03125 L 1648.871094 2444.039062 C 1648.980469 2444.050781 1649.089844 2444.070312 1649.191406 2444.089844 L 1649.199219 2444.101562 C 1653.558594 2444.769531 1657.898438 2445.351562 1662.351562 2445.828125 C 1662.351562 2445.828125 1662.351562 2445.828125 1662.359375 2445.828125 L 1662.351562 2445.839844 C 1666.929688 2446.328125 1671.5 2446.78125 1676.058594 2447.199219 L 1676.058594 2397.230469 L 1676.078125 2397.230469 C 1673.289062 2396.960938 1670.5 2396.671875 1667.691406 2396.371094 C 1663.96875 2395.96875 1660.300781 2395.480469 1656.671875 2394.898438 L 1656.648438 2394.898438 L 1656.648438 2394.910156 C 1481.570312 2367.191406 1340.859375 2285.230469 1234.519531 2149.03125 L 1234.378906 2148.851562 L 1234.101562 2148.488281 L 1234.109375 2148.5 L 1233.960938 2148.320312 L 1233.929688 2148.269531 C 1199.660156 2103.988281 1171.480469 2055.859375 1149.390625 2003.871094 C 1147.410156 1999.199219 1145.578125 1994.460938 1143.921875 1989.679688 L 1126 1938.101562 L 1126.03125 1938.109375 C 1125.890625 1937.761719 1125.769531 1937.421875 1125.640625 1937.070312 C 1124.191406 1932.878906 1122.878906 1928.71875 1121.679688 1924.460938 L 1121.699219 1924.46875 C 1121.578125 1924.089844 1121.46875 1923.71875 1121.359375 1923.339844 C 1112.308594 1890.710938 1105.890625 1857.410156 1102.078125 1823.441406 Z M 1052.039062 1823.441406 "/>
</svg>
